<mxfile host="app.diagrams.net" agent="Mozilla/5.0 (X11; Ubuntu; Linux x86_64; rv:136.0) Gecko/20100101 Firefox/136.0" version="26.1.1">
  <diagram name="Page-1" id="e37KfjeBLMmAc0bgkDCy">
    <mxGraphModel dx="574" dy="317" grid="1" gridSize="10" guides="1" tooltips="1" connect="1" arrows="1" fold="1" page="1" pageScale="1" pageWidth="850" pageHeight="1100" math="0" shadow="0">
      <root>
        <mxCell id="0" />
        <mxCell id="1" parent="0" />
        <mxCell id="1oTYcd60OLYXgHPPM0VE-11" style="edgeStyle=orthogonalEdgeStyle;rounded=1;orthogonalLoop=1;jettySize=auto;html=1;exitX=1;exitY=0.5;exitDx=0;exitDy=0;entryX=0.5;entryY=0;entryDx=0;entryDy=0;curved=0;" edge="1" parent="1" source="1oTYcd60OLYXgHPPM0VE-3" target="1oTYcd60OLYXgHPPM0VE-10">
          <mxGeometry relative="1" as="geometry" />
        </mxCell>
        <mxCell id="1oTYcd60OLYXgHPPM0VE-3" value="Idle" style="ellipse;whiteSpace=wrap;html=1;" vertex="1" parent="1">
          <mxGeometry x="150" y="140" width="40" height="30" as="geometry" />
        </mxCell>
        <mxCell id="1oTYcd60OLYXgHPPM0VE-15" style="edgeStyle=orthogonalEdgeStyle;rounded=0;orthogonalLoop=1;jettySize=auto;html=1;exitX=0.5;exitY=1;exitDx=0;exitDy=0;" edge="1" parent="1" source="1oTYcd60OLYXgHPPM0VE-10" target="1oTYcd60OLYXgHPPM0VE-14">
          <mxGeometry relative="1" as="geometry" />
        </mxCell>
        <mxCell id="1oTYcd60OLYXgHPPM0VE-10" value="neuron update" style="ellipse;whiteSpace=wrap;html=1;" vertex="1" parent="1">
          <mxGeometry x="220" y="200" width="60" height="40" as="geometry" />
        </mxCell>
        <mxCell id="1oTYcd60OLYXgHPPM0VE-12" value="&lt;span style=&quot;color: rgb(51, 51, 255);&quot;&gt;i_start_emu=1&lt;/span&gt;" style="text;html=1;align=center;verticalAlign=middle;whiteSpace=wrap;rounded=0;" vertex="1" parent="1">
          <mxGeometry x="260" y="130" width="60" height="30" as="geometry" />
        </mxCell>
        <mxCell id="1oTYcd60OLYXgHPPM0VE-13" value="&lt;div&gt;&lt;span style=&quot;color: rgb(255, 51, 51);&quot;&gt;start_calc=1&lt;/span&gt;&lt;/div&gt;&lt;div&gt;&lt;span style=&quot;color: rgb(255, 51, 51);&quot;&gt;o_emu_busy=1&lt;/span&gt;&lt;/div&gt;" style="text;html=1;align=center;verticalAlign=middle;whiteSpace=wrap;rounded=0;" vertex="1" parent="1">
          <mxGeometry x="250" y="150" width="80" height="30" as="geometry" />
        </mxCell>
        <mxCell id="1oTYcd60OLYXgHPPM0VE-20" style="edgeStyle=orthogonalEdgeStyle;rounded=1;orthogonalLoop=1;jettySize=auto;html=1;exitX=0;exitY=0.5;exitDx=0;exitDy=0;entryX=0.5;entryY=1;entryDx=0;entryDy=0;curved=0;" edge="1" parent="1" source="1oTYcd60OLYXgHPPM0VE-14" target="1oTYcd60OLYXgHPPM0VE-3">
          <mxGeometry relative="1" as="geometry" />
        </mxCell>
        <mxCell id="1oTYcd60OLYXgHPPM0VE-23" style="edgeStyle=orthogonalEdgeStyle;rounded=0;orthogonalLoop=1;jettySize=auto;html=1;exitX=0.5;exitY=1;exitDx=0;exitDy=0;entryX=0.5;entryY=0;entryDx=0;entryDy=0;" edge="1" parent="1" source="1oTYcd60OLYXgHPPM0VE-14" target="1oTYcd60OLYXgHPPM0VE-19">
          <mxGeometry relative="1" as="geometry" />
        </mxCell>
        <mxCell id="1oTYcd60OLYXgHPPM0VE-14" value="&lt;div&gt;check&lt;/div&gt;&lt;div&gt;arbitration&lt;/div&gt;" style="ellipse;whiteSpace=wrap;html=1;" vertex="1" parent="1">
          <mxGeometry x="215" y="280" width="70" height="40" as="geometry" />
        </mxCell>
        <mxCell id="1oTYcd60OLYXgHPPM0VE-16" value="&lt;div&gt;&lt;span style=&quot;color: rgb(255, 51, 51);&quot;&gt;start_calc=0&lt;/span&gt;&lt;/div&gt;" style="text;html=1;align=center;verticalAlign=middle;whiteSpace=wrap;rounded=0;" vertex="1" parent="1">
          <mxGeometry x="250" y="240" width="80" height="30" as="geometry" />
        </mxCell>
        <mxCell id="1oTYcd60OLYXgHPPM0VE-26" style="edgeStyle=orthogonalEdgeStyle;rounded=0;orthogonalLoop=1;jettySize=auto;html=1;exitX=0;exitY=0.5;exitDx=0;exitDy=0;entryX=1;entryY=0.5;entryDx=0;entryDy=0;" edge="1" parent="1" source="1oTYcd60OLYXgHPPM0VE-19" target="1oTYcd60OLYXgHPPM0VE-25">
          <mxGeometry relative="1" as="geometry" />
        </mxCell>
        <mxCell id="1oTYcd60OLYXgHPPM0VE-19" value="request" style="ellipse;whiteSpace=wrap;html=1;" vertex="1" parent="1">
          <mxGeometry x="220" y="360" width="60" height="40" as="geometry" />
        </mxCell>
        <mxCell id="1oTYcd60OLYXgHPPM0VE-21" value="&lt;span style=&quot;color: rgb(51, 51, 255);&quot;&gt;spikes=0&lt;/span&gt;" style="text;html=1;align=center;verticalAlign=middle;whiteSpace=wrap;rounded=0;" vertex="1" parent="1">
          <mxGeometry x="170" y="220" width="60" height="30" as="geometry" />
        </mxCell>
        <mxCell id="1oTYcd60OLYXgHPPM0VE-22" value="&lt;span style=&quot;color: rgb(51, 51, 255);&quot;&gt;spikes!=0&lt;/span&gt;" style="text;html=1;align=center;verticalAlign=middle;whiteSpace=wrap;rounded=0;" vertex="1" parent="1">
          <mxGeometry x="270" y="310" width="60" height="30" as="geometry" />
        </mxCell>
        <mxCell id="1oTYcd60OLYXgHPPM0VE-24" value="&lt;span style=&quot;color: rgb(255, 51, 51);&quot;&gt;o_req=1&lt;/span&gt;" style="text;html=1;align=center;verticalAlign=middle;whiteSpace=wrap;rounded=0;" vertex="1" parent="1">
          <mxGeometry x="260" y="330" width="80" height="30" as="geometry" />
        </mxCell>
        <mxCell id="1oTYcd60OLYXgHPPM0VE-30" style="edgeStyle=orthogonalEdgeStyle;rounded=0;orthogonalLoop=1;jettySize=auto;html=1;exitX=0.5;exitY=0;exitDx=0;exitDy=0;" edge="1" parent="1" source="1oTYcd60OLYXgHPPM0VE-25" target="1oTYcd60OLYXgHPPM0VE-29">
          <mxGeometry relative="1" as="geometry" />
        </mxCell>
        <mxCell id="1oTYcd60OLYXgHPPM0VE-25" value="accept" style="ellipse;whiteSpace=wrap;html=1;" vertex="1" parent="1">
          <mxGeometry x="90" y="360" width="60" height="40" as="geometry" />
        </mxCell>
        <mxCell id="1oTYcd60OLYXgHPPM0VE-27" value="&lt;span style=&quot;color: rgb(51, 51, 255);&quot;&gt;i_ack=1&lt;/span&gt;" style="text;html=1;align=center;verticalAlign=middle;whiteSpace=wrap;rounded=0;" vertex="1" parent="1">
          <mxGeometry x="160" y="350" width="60" height="30" as="geometry" />
        </mxCell>
        <mxCell id="1oTYcd60OLYXgHPPM0VE-28" value="&lt;div&gt;&lt;span style=&quot;color: rgb(255, 51, 51);&quot;&gt;o_req=0&lt;/span&gt;&lt;/div&gt;" style="text;html=1;align=center;verticalAlign=middle;whiteSpace=wrap;rounded=0;" vertex="1" parent="1">
          <mxGeometry x="150" y="380" width="80" height="30" as="geometry" />
        </mxCell>
        <mxCell id="1oTYcd60OLYXgHPPM0VE-36" style="edgeStyle=orthogonalEdgeStyle;rounded=0;orthogonalLoop=1;jettySize=auto;html=1;exitX=0.5;exitY=0;exitDx=0;exitDy=0;entryX=0.5;entryY=1;entryDx=0;entryDy=0;" edge="1" parent="1" source="1oTYcd60OLYXgHPPM0VE-29" target="1oTYcd60OLYXgHPPM0VE-34">
          <mxGeometry relative="1" as="geometry" />
        </mxCell>
        <mxCell id="1oTYcd60OLYXgHPPM0VE-29" value="&lt;div&gt;wait&lt;/div&gt;&lt;div&gt;arbitration&lt;/div&gt;" style="ellipse;whiteSpace=wrap;html=1;" vertex="1" parent="1">
          <mxGeometry x="90" y="260" width="60" height="40" as="geometry" />
        </mxCell>
        <mxCell id="1oTYcd60OLYXgHPPM0VE-31" value="&lt;span style=&quot;color: rgb(255, 51, 51);&quot;&gt;start_arb=1&lt;/span&gt;" style="text;html=1;align=center;verticalAlign=middle;whiteSpace=wrap;rounded=0;" vertex="1" parent="1">
          <mxGeometry x="40" y="330" width="80" height="30" as="geometry" />
        </mxCell>
        <mxCell id="1oTYcd60OLYXgHPPM0VE-32" value="&lt;span style=&quot;color: rgb(51, 51, 255);&quot;&gt;i_ack=0&lt;/span&gt;" style="text;html=1;align=center;verticalAlign=middle;whiteSpace=wrap;rounded=0;" vertex="1" parent="1">
          <mxGeometry x="50" y="310" width="60" height="30" as="geometry" />
        </mxCell>
        <mxCell id="1oTYcd60OLYXgHPPM0VE-38" style="edgeStyle=orthogonalEdgeStyle;rounded=1;orthogonalLoop=1;jettySize=auto;html=1;exitX=0.5;exitY=0;exitDx=0;exitDy=0;entryX=0;entryY=0.5;entryDx=0;entryDy=0;curved=0;" edge="1" parent="1" source="1oTYcd60OLYXgHPPM0VE-34" target="1oTYcd60OLYXgHPPM0VE-3">
          <mxGeometry relative="1" as="geometry" />
        </mxCell>
        <mxCell id="1oTYcd60OLYXgHPPM0VE-34" value="&lt;div&gt;wait&lt;/div&gt;&lt;div&gt;arbitration&lt;/div&gt;" style="ellipse;whiteSpace=wrap;html=1;" vertex="1" parent="1">
          <mxGeometry x="90" y="190" width="60" height="40" as="geometry" />
        </mxCell>
        <mxCell id="1oTYcd60OLYXgHPPM0VE-39" value="&lt;span style=&quot;color: rgb(51, 51, 255);&quot;&gt;arb_busy=0&lt;/span&gt;" style="text;html=1;align=center;verticalAlign=middle;whiteSpace=wrap;rounded=0;" vertex="1" parent="1">
          <mxGeometry x="50" y="230" width="60" height="30" as="geometry" />
        </mxCell>
      </root>
    </mxGraphModel>
  </diagram>
</mxfile>
